# Blender 4.4.3
# www.blender.org
o rabbit_ears_curve
v 0.040573 -0.197103 0.000000
v 0.005376 -0.199213 0.000000
v 0.029071 -0.197926 0.000000
v 0.017191 -0.198607 0.000000
v 0.052008 -0.196006 0.000000
v 0.063824 -0.194454 0.000000
v 0.076164 -0.192316 0.000000
v 0.089030 -0.189650 0.000000
v 0.102364 -0.186640 0.000000
v 0.115787 -0.183404 0.000000
v 0.128783 -0.179937 0.000000
v 0.141198 -0.176198 0.000000
v 0.153097 -0.172262 0.000000
v 0.164480 -0.168236 0.000000
v 0.175383 -0.164140 0.000000
v 0.186041 -0.159954 0.000000
v 0.196781 -0.155644 0.000000
v 0.207670 -0.151134 0.000000
v 0.218513 -0.146362 0.000000
v 0.229300 -0.141262 0.000000
v 0.240334 -0.135644 0.000000
v 0.251789 -0.129324 0.000000
v 0.263387 -0.122398 0.000000
v 0.274755 -0.115077 0.000000
v 0.285863 -0.107324 0.000000
v 0.296637 -0.099093 0.000000
v 0.306613 -0.090737 0.000000
v 0.315474 -0.082574 0.000000
v 0.323502 -0.074369 0.000000
v 0.331149 -0.065737 0.000000
v 0.338510 -0.056510 0.000000
v 0.345287 -0.046524 0.000000
v 0.350963 -0.035686 0.000000
v 0.355111 -0.024275 0.000000
v 0.356856 -0.013016 0.000000
v 0.356374 -0.002172 0.000000
v 0.353962 0.008362 0.000000
v 0.349537 0.018351 0.000000
v 0.342981 0.027300 0.000000
v 0.334949 0.035146 0.000000
v 0.325883 0.041617 0.000000
v 0.316241 0.046566 0.000000
v 0.306095 0.050199 0.000000
v 0.295423 0.052996 0.000000
v 0.284475 0.055284 0.000000
v 0.273511 0.057125 0.000000
v 0.262529 0.058520 0.000000
v 0.251499 0.059539 0.000000
v 0.240476 0.060312 0.000000
v 0.229402 0.060889 0.000000
v 0.218174 0.061189 0.000000
v 0.206795 0.061100 0.000000
v 0.195316 0.060706 0.000000
v 0.183919 0.060269 0.000000
v 0.172932 0.059985 0.000000
v 0.163810 0.060177 0.000000
v 0.150843 0.062081 0.000000
v 0.147023 0.064661 0.000000
v 0.145713 0.068587 0.000000
v 0.147195 0.073210 0.000000
v 0.156746 0.082280 0.000000
v 0.163461 0.087097 0.000000
v 0.172167 0.092532 0.000000
v 0.181083 0.097489 0.000000
v 0.190226 0.102268 0.000000
v 0.199911 0.107067 0.000000
v 0.210290 0.111975 0.000000
v 0.221119 0.116993 0.000000
v 0.232165 0.122178 0.000000
v 0.243533 0.127747 0.000000
v 0.255289 0.133852 0.000000
v 0.267120 0.140326 0.000000
v 0.278647 0.146859 0.000000
v 0.289745 0.153296 0.000000
v 0.300351 0.159688 0.000000
v 0.310391 0.166180 0.000000
v 0.319871 0.172843 0.000000
v 0.328839 0.179685 0.000000
v 0.337438 0.186855 0.000000
v 0.345862 0.194546 0.000000
v 0.353991 0.202707 0.000000
v 0.361244 0.211002 0.000000
v 0.366931 0.219159 0.000000
v 0.370690 0.227163 0.000000
v 0.371272 0.234556 0.000000
v 0.369672 0.240820 0.000000
v 0.364743 0.245141 0.000000
v 0.357318 0.247869 0.000000
v 0.346699 0.248255 0.000000
v 0.335864 0.247753 0.000000
v 0.324773 0.246250 0.000000
v 0.313361 0.243772 0.000000
v 0.301615 0.240413 0.000000
v 0.289497 0.236329 0.000000
v 0.276948 0.231642 0.000000
v 0.264048 0.226528 0.000000
v 0.250930 0.221341 0.000000
v 0.237850 0.216491 0.000000
v 0.225335 0.212311 0.000000
v 0.213624 0.208929 0.000000
v 0.202237 0.206209 0.000000
v 0.190322 0.203902 0.000000
v 0.177157 0.201882 0.000000
v 0.162543 0.200165 0.000000
v 0.146999 0.198770 0.000000
v 0.131308 0.197622 0.000000
v 0.115884 0.196603 0.000000
v 0.100651 0.195726 0.000000
v 0.085180 0.195142 0.000000
v 0.069039 0.194932 0.000000
v 0.052453 0.195070 0.000000
v 0.036282 0.195500 0.000000
v 0.021344 0.196163 0.000000
v 0.006564 0.196955 0.000000
v -0.008087 0.197926 0.000000
v -0.022684 0.198990 0.000000
v -0.036694 0.199037 0.000000
v -0.050682 0.198112 0.000000
v -0.065150 0.196562 0.000000
v -0.080148 0.194617 0.000000
v -0.095505 0.192107 0.000000
v -0.110950 0.188889 0.000000
v -0.126129 0.185185 0.000000
v -0.140993 0.181282 0.000000
v -0.155828 0.177287 0.000000
v -0.170824 0.173166 0.000000
v -0.186026 0.168703 0.000000
v -0.201345 0.163644 0.000000
v -0.216590 0.157950 0.000000
v -0.231852 0.151567 0.000000
v -0.247326 0.144325 0.000000
v -0.262490 0.136395 0.000000
v -0.276353 0.128257 0.000000
v -0.288698 0.119987 0.000000
v -0.300210 0.111180 0.000000
v -0.311393 0.101496 0.000000
v -0.322025 0.090865 0.000000
v -0.331597 0.079497 0.000000
v -0.339749 0.067782 0.000000
v -0.346408 0.055780 0.000000
v -0.351352 0.042783 0.000000
v -0.355246 0.029092 0.000000
v -0.358075 0.015073 0.000000
v -0.358952 0.000829 0.000000
v -0.357177 -0.013467 0.000000
v -0.353028 -0.027705 0.000000
v -0.347606 -0.041871 0.000000
v -0.339759 -0.055886 0.000000
v -0.330239 -0.070054 0.000000
v -0.319097 -0.084102 0.000000
v -0.306745 -0.097285 0.000000
v -0.293684 -0.109180 0.000000
v -0.280032 -0.119963 0.000000
v -0.265576 -0.129921 0.000000
v -0.250183 -0.139162 0.000000
v -0.233933 -0.147721 0.000000
v -0.217192 -0.155560 0.000000
v -0.200405 -0.162571 0.000000
v -0.183647 -0.168720 0.000000
v -0.166652 -0.174081 0.000000
v -0.149132 -0.178888 0.000000
v -0.130983 -0.183394 0.000000
v -0.112432 -0.187596 0.000000
v -0.093767 -0.191320 0.000000
v -0.074845 -0.194484 0.000000
v -0.055498 -0.197044 0.000000
v -0.036549 -0.198851 0.000000
v -0.019712 -0.199754 0.000000
v -0.006498 -0.199682 0.000000
v 0.046264 -0.196599 0.000000
v 0.034867 -0.197539 0.000000
v 0.011280 -0.198924 0.000000
v 0.023123 -0.198271 0.000000
v 0.057852 -0.195298 0.000000
v 0.069928 -0.193459 0.000000
v 0.082531 -0.191038 0.000000
v 0.095652 -0.188178 0.000000
v 0.109101 -0.185048 0.000000
v 0.122359 -0.181703 0.000000
v 0.135059 -0.178100 0.000000
v 0.147211 -0.174246 0.000000
v 0.158854 -0.170257 0.000000
v 0.169982 -0.166198 0.000000
v 0.180720 -0.162059 0.000000
v 0.191387 -0.157819 0.000000
v 0.202217 -0.153419 0.000000
v 0.213107 -0.148783 0.000000
v 0.223898 -0.143861 0.000000
v 0.234765 -0.138533 0.000000
v 0.246017 -0.132574 0.000000
v 0.257599 -0.125920 0.000000
v 0.269109 -0.118782 0.000000
v 0.280337 -0.111265 0.000000
v 0.291314 -0.103255 0.000000
v 0.301757 -0.094900 0.000000
v 0.311178 -0.086634 0.000000
v 0.319559 -0.078506 0.000000
v 0.327357 -0.070120 0.000000
v 0.334877 -0.061206 0.000000
v 0.342001 -0.051624 0.000000
v 0.348296 -0.041204 0.000000
v 0.353240 -0.030020 0.000000
v 0.356608 -0.018517 0.000000
v 0.356841 -0.007558 0.000000
v 0.355389 0.003131 0.000000
v 0.352281 0.013551 0.000000
v 0.346452 0.022947 0.000000
v 0.339130 0.031378 0.000000
v 0.330509 0.038568 0.000000
v 0.321121 0.044279 0.000000
v 0.311237 0.048518 0.000000
v 0.300815 0.051674 0.000000
v 0.289962 0.054195 0.000000
v 0.278990 0.056261 0.000000
v 0.268027 0.057876 0.000000
v 0.257016 0.059068 0.000000
v 0.245986 0.059950 0.000000
v 0.234954 0.060627 0.000000
v 0.223809 0.061083 0.000000
v 0.212502 0.061195 0.000000
v 0.201061 0.060926 0.000000
v 0.189589 0.060478 0.000000
v 0.178348 0.060098 0.000000
v 0.167741 0.059964 0.000000
v 0.160050 0.060430 0.000000
v 0.148658 0.063189 0.000000
v 0.146021 0.066482 0.000000
v 0.146116 0.070868 0.000000
v 0.148879 0.075519 0.000000
v 0.160030 0.084652 0.000000
v 0.167770 0.089893 0.000000
v 0.176608 0.095050 0.000000
v 0.185609 0.099885 0.000000
v 0.194981 0.104657 0.000000
v 0.205022 0.109506 0.000000
v 0.215670 0.114470 0.000000
v 0.226614 0.119554 0.000000
v 0.237797 0.124899 0.000000
v 0.249374 0.130735 0.000000
v 0.261223 0.137063 0.000000
v 0.272935 0.143600 0.000000
v 0.284252 0.150090 0.000000
v 0.295116 0.156489 0.000000
v 0.305443 0.162913 0.000000
v 0.315199 0.169491 0.000000
v 0.324414 0.176237 0.000000
v 0.333170 0.183215 0.000000
v 0.341667 0.190630 0.000000
v 0.349991 0.198585 0.000000
v 0.357773 0.206860 0.000000
v 0.364317 0.215104 0.000000
v 0.369054 0.223174 0.000000
v 0.371128 0.230930 0.000000
v 0.370855 0.237897 0.000000
v 0.367622 0.243238 0.000000
v 0.361210 0.246624 0.000000
v 0.352033 0.248152 0.000000
v 0.341310 0.248129 0.000000
v 0.330355 0.247126 0.000000
v 0.319109 0.245130 0.000000
v 0.307529 0.242193 0.000000
v 0.295608 0.238452 0.000000
v 0.283275 0.234054 0.000000
v 0.270533 0.229120 0.000000
v 0.257507 0.223917 0.000000
v 0.244356 0.218850 0.000000
v 0.231491 0.214303 0.000000
v 0.219394 0.210523 0.000000
v 0.207941 0.207503 0.000000
v 0.196398 0.205016 0.000000
v 0.183925 0.202857 0.000000
v 0.170014 0.200983 0.000000
v 0.154835 0.199430 0.000000
v 0.139133 0.198173 0.000000
v 0.123558 0.197100 0.000000
v 0.108264 0.196138 0.000000
v 0.092980 0.195389 0.000000
v 0.077200 0.194990 0.000000
v 0.060753 0.194961 0.000000
v 0.044262 0.195253 0.000000
v 0.028799 0.195823 0.000000
v 0.013932 0.196537 0.000000
v -0.000772 0.197422 0.000000
v -0.015389 0.198453 0.000000
v -0.029731 0.199145 0.000000
v -0.043651 0.198678 0.000000
v -0.057843 0.197391 0.000000
v -0.072593 0.195643 0.000000
v -0.087795 0.193449 0.000000
v -0.103240 0.190580 0.000000
v -0.118588 0.187076 0.000000
v -0.133585 0.183248 0.000000
v -0.148397 0.179294 0.000000
v -0.163301 0.175251 0.000000
v -0.178400 0.170996 0.000000
v -0.193685 0.166255 0.000000
v -0.208982 0.160875 0.000000
v -0.224199 0.154856 0.000000
v -0.239572 0.148056 0.000000
v -0.255013 0.140415 0.000000
v -0.269627 0.132332 0.000000
v -0.282683 0.124159 0.000000
v -0.294510 0.115678 0.000000
v -0.305842 0.106458 0.000000
v -0.316811 0.096294 0.000000
v -0.326972 0.085249 0.000000
v -0.335863 0.073665 0.000000
v -0.343257 0.061837 0.000000
v -0.349231 0.049544 0.000000
v -0.353386 0.035976 0.000000
v -0.356845 0.022121 0.000000
v -0.358817 0.007967 0.000000
v -0.358406 -0.006321 0.000000
v -0.355341 -0.020597 0.000000
v -0.350397 -0.034794 0.000000
v -0.343885 -0.048868 0.000000
v -0.335213 -0.062951 0.000000
v -0.324853 -0.077137 0.000000
v -0.313036 -0.090844 0.000000
v -0.300284 -0.103392 0.000000
v -0.286942 -0.114689 0.000000
v -0.272918 -0.125035 0.000000
v -0.257997 -0.134628 0.000000
v -0.242149 -0.143526 0.000000
v -0.225591 -0.151738 0.000000
v -0.208788 -0.159173 0.000000
v -0.192035 -0.165751 0.000000
v -0.175199 -0.171489 0.000000
v -0.157971 -0.176534 0.000000
v -0.140130 -0.181171 0.000000
v -0.121734 -0.185544 0.000000
v -0.103111 -0.189527 0.000000
v -0.084361 -0.192973 0.000000
v -0.065205 -0.195846 0.000000
v -0.045873 -0.198054 0.000000
v -0.027765 -0.199418 0.000000
v -0.012476 -0.199879 0.000000
v -0.000545 -0.199465 0.000000
v 0.156589 0.060780 0.000000
v 0.153505 0.061302 0.000000
v 0.151085 0.077769 0.000000
v 0.153733 0.080000 0.000000
l 170 5
l 171 1
l 172 4
l 173 3
l 174 6
l 175 7
l 176 8
l 177 9
l 178 10
l 179 11
l 180 12
l 181 13
l 182 14
l 183 15
l 184 16
l 185 17
l 186 18
l 187 19
l 188 20
l 189 21
l 190 22
l 191 23
l 192 24
l 193 25
l 194 26
l 195 27
l 196 28
l 197 29
l 198 30
l 199 31
l 200 32
l 201 33
l 202 34
l 203 35
l 204 36
l 205 37
l 206 38
l 207 39
l 208 40
l 209 41
l 210 42
l 211 43
l 212 44
l 213 45
l 214 46
l 215 47
l 216 48
l 217 49
l 218 50
l 219 51
l 220 52
l 221 53
l 222 54
l 223 55
l 224 56
l 340 57
l 226 58
l 227 59
l 228 60
l 342 61
l 230 62
l 231 63
l 232 64
l 233 65
l 234 66
l 235 67
l 236 68
l 237 69
l 238 70
l 239 71
l 240 72
l 241 73
l 242 74
l 243 75
l 244 76
l 245 77
l 246 78
l 247 79
l 248 80
l 249 81
l 250 82
l 251 83
l 252 84
l 253 85
l 254 86
l 255 87
l 256 88
l 257 89
l 258 90
l 259 91
l 260 92
l 261 93
l 262 94
l 263 95
l 264 96
l 265 97
l 266 98
l 267 99
l 268 100
l 269 101
l 270 102
l 271 103
l 272 104
l 273 105
l 274 106
l 275 107
l 276 108
l 277 109
l 278 110
l 279 111
l 280 112
l 281 113
l 282 114
l 283 115
l 284 116
l 285 117
l 286 118
l 287 119
l 288 120
l 289 121
l 290 122
l 291 123
l 292 124
l 293 125
l 294 126
l 295 127
l 296 128
l 297 129
l 298 130
l 299 131
l 300 132
l 301 133
l 302 134
l 303 135
l 304 136
l 305 137
l 306 138
l 307 139
l 308 140
l 309 141
l 310 142
l 311 143
l 312 144
l 313 145
l 314 146
l 315 147
l 316 148
l 317 149
l 318 150
l 319 151
l 320 152
l 321 153
l 322 154
l 323 155
l 324 156
l 325 157
l 326 158
l 327 159
l 328 160
l 329 161
l 330 162
l 331 163
l 332 164
l 333 165
l 334 166
l 335 167
l 336 168
l 337 169
l 1 170
l 338 2
l 3 171
l 2 172
l 4 173
l 5 174
l 6 175
l 7 176
l 8 177
l 9 178
l 10 179
l 11 180
l 12 181
l 13 182
l 14 183
l 15 184
l 16 185
l 17 186
l 18 187
l 19 188
l 20 189
l 21 190
l 22 191
l 23 192
l 24 193
l 25 194
l 26 195
l 27 196
l 28 197
l 29 198
l 30 199
l 31 200
l 32 201
l 33 202
l 34 203
l 35 204
l 36 205
l 37 206
l 38 207
l 39 208
l 40 209
l 41 210
l 42 211
l 43 212
l 44 213
l 45 214
l 46 215
l 47 216
l 48 217
l 49 218
l 50 219
l 51 220
l 52 221
l 53 222
l 54 223
l 55 224
l 56 225
l 57 226
l 58 227
l 59 228
l 60 229
l 61 230
l 62 231
l 63 232
l 64 233
l 65 234
l 66 235
l 67 236
l 68 237
l 69 238
l 70 239
l 71 240
l 72 241
l 73 242
l 74 243
l 75 244
l 76 245
l 77 246
l 78 247
l 79 248
l 80 249
l 81 250
l 82 251
l 83 252
l 84 253
l 85 254
l 86 255
l 87 256
l 88 257
l 89 258
l 90 259
l 91 260
l 92 261
l 93 262
l 94 263
l 95 264
l 96 265
l 97 266
l 98 267
l 99 268
l 100 269
l 101 270
l 102 271
l 103 272
l 104 273
l 105 274
l 106 275
l 107 276
l 108 277
l 109 278
l 110 279
l 111 280
l 112 281
l 113 282
l 114 283
l 115 284
l 116 285
l 117 286
l 118 287
l 119 288
l 120 289
l 121 290
l 122 291
l 123 292
l 124 293
l 125 294
l 126 295
l 127 296
l 128 297
l 129 298
l 130 299
l 131 300
l 132 301
l 133 302
l 134 303
l 135 304
l 136 305
l 137 306
l 138 307
l 139 308
l 140 309
l 141 310
l 142 311
l 143 312
l 144 313
l 145 314
l 146 315
l 147 316
l 148 317
l 149 318
l 150 319
l 151 320
l 152 321
l 153 322
l 154 323
l 155 324
l 156 325
l 157 326
l 158 327
l 159 328
l 160 329
l 161 330
l 162 331
l 163 332
l 164 333
l 165 334
l 166 335
l 167 336
l 168 337
l 169 338
l 225 339
l 339 340
l 229 341
l 341 342
